<mxfile host="65bd71144e">
    <diagram id="yUpXesffEtbtTizqdA8Y" name="Page-1">
        <mxGraphModel dx="1177" dy="773" grid="1" gridSize="10" guides="1" tooltips="1" connect="1" arrows="1" fold="1" page="1" pageScale="1" pageWidth="850" pageHeight="1100" math="0" shadow="0">
            <root>
                <mxCell id="0"/>
                <mxCell id="1" parent="0"/>
                <mxCell id="69" value="" style="group" vertex="1" connectable="0" parent="1">
                    <mxGeometry x="740" y="40" width="800" height="640" as="geometry"/>
                </mxCell>
                <mxCell id="67" value="«Subsystem»&lt;br&gt;&lt;b&gt;Archiver Service&lt;/b&gt;" style="html=1;dropTarget=0;align=center;labelPosition=center;verticalLabelPosition=top;verticalAlign=bottom;" vertex="1" parent="69">
                    <mxGeometry width="800" height="640" as="geometry"/>
                </mxCell>
                <mxCell id="68" value="" style="shape=module;jettyWidth=8;jettyHeight=4;" vertex="1" parent="67">
                    <mxGeometry x="1" width="20" height="20" relative="1" as="geometry">
                        <mxPoint x="-27" y="7" as="offset"/>
                    </mxGeometry>
                </mxCell>
                <mxCell id="27" value="«Component»&lt;br&gt;&lt;b&gt;Backend&lt;/b&gt;" style="html=1;dropTarget=0;" parent="69" vertex="1">
                    <mxGeometry x="410.002857142857" y="62" width="329.1428571428571" height="90" as="geometry"/>
                </mxCell>
                <mxCell id="28" value="" style="shape=module;jettyWidth=8;jettyHeight=4;" parent="27" vertex="1">
                    <mxGeometry x="1" width="20" height="20" relative="1" as="geometry">
                        <mxPoint x="-27" y="7" as="offset"/>
                    </mxGeometry>
                </mxCell>
                <mxCell id="65" value="«Component»&lt;br&gt;&lt;b&gt;Reverse Proxy&lt;/b&gt;" style="html=1;dropTarget=0;" parent="69" vertex="1">
                    <mxGeometry x="90" y="72" width="150" height="500" as="geometry"/>
                </mxCell>
                <mxCell id="66" value="" style="shape=module;jettyWidth=8;jettyHeight=4;" parent="65" vertex="1">
                    <mxGeometry x="1" width="20" height="20" relative="1" as="geometry">
                        <mxPoint x="-27" y="7" as="offset"/>
                    </mxGeometry>
                </mxCell>
                <mxCell id="81" value="" style="edgeStyle=elbowEdgeStyle;elbow=horizontal;endArrow=open;html=1;curved=0;rounded=0;endSize=8;startSize=8;entryX=0;entryY=0.5;entryDx=0;entryDy=0;dashed=1;exitX=1;exitY=0.25;exitDx=0;exitDy=0;endFill=0;" edge="1" parent="69" source="65" target="27">
                    <mxGeometry width="50" height="50" relative="1" as="geometry">
                        <mxPoint x="290.42428571428536" y="90" as="sourcePoint"/>
                        <mxPoint x="290" y="258" as="targetPoint"/>
                        <Array as="points">
                            <mxPoint x="310" y="130"/>
                            <mxPoint x="565" y="148"/>
                        </Array>
                    </mxGeometry>
                </mxCell>
                <mxCell id="97" value="" style="group" vertex="1" connectable="0" parent="69">
                    <mxGeometry x="409.1500000000001" y="190" width="330" height="410" as="geometry"/>
                </mxCell>
                <mxCell id="93" value="&lt;div style=&quot;text-align: center;&quot;&gt;&lt;span style=&quot;background-color: initial;&quot;&gt;«Subsystem»&lt;/span&gt;&lt;/div&gt;&lt;b&gt;Workflow Orchestracton&lt;/b&gt;" style="html=1;dropTarget=0;labelPosition=center;verticalLabelPosition=top;align=center;verticalAlign=bottom;" vertex="1" parent="97">
                    <mxGeometry width="330" height="410" as="geometry"/>
                </mxCell>
                <mxCell id="94" value="" style="shape=module;jettyWidth=8;jettyHeight=4;" vertex="1" parent="93">
                    <mxGeometry x="1" width="20" height="20" relative="1" as="geometry">
                        <mxPoint x="-27" y="7" as="offset"/>
                    </mxGeometry>
                </mxCell>
                <mxCell id="23" value="«Component»&lt;br&gt;&lt;b&gt;Prefect Server&lt;/b&gt;" style="html=1;dropTarget=0;" parent="97" vertex="1">
                    <mxGeometry x="37" y="40" width="260" height="88" as="geometry"/>
                </mxCell>
                <mxCell id="24" value="" style="shape=module;jettyWidth=8;jettyHeight=4;" parent="23" vertex="1">
                    <mxGeometry x="1" width="20" height="20" relative="1" as="geometry">
                        <mxPoint x="-27" y="7" as="offset"/>
                    </mxGeometry>
                </mxCell>
                <mxCell id="12" value="«Component»&lt;br&gt;&lt;b&gt;Prefect Worker&lt;/b&gt;" style="html=1;dropTarget=0;" parent="97" vertex="1">
                    <mxGeometry x="37" y="170" width="260" height="80" as="geometry"/>
                </mxCell>
                <mxCell id="13" value="" style="shape=module;jettyWidth=8;jettyHeight=4;" parent="12" vertex="1">
                    <mxGeometry x="1" width="20" height="20" relative="1" as="geometry">
                        <mxPoint x="-27" y="7" as="offset"/>
                    </mxGeometry>
                </mxCell>
                <mxCell id="14" value="«Component»&lt;br&gt;&lt;b&gt;Prefect Flow&lt;/b&gt;" style="html=1;dropTarget=0;" parent="97" vertex="1">
                    <mxGeometry x="37" y="295" width="259.57" height="80" as="geometry"/>
                </mxCell>
                <mxCell id="15" value="" style="shape=module;jettyWidth=8;jettyHeight=4;" parent="14" vertex="1">
                    <mxGeometry x="1" width="20" height="20" relative="1" as="geometry">
                        <mxPoint x="-27" y="7" as="offset"/>
                    </mxGeometry>
                </mxCell>
                <mxCell id="89" value="Queue Flow" style="endArrow=open;endSize=12;dashed=1;html=1;exitX=0.5;exitY=1;exitDx=0;exitDy=0;entryX=0.5;entryY=0;entryDx=0;entryDy=0;" edge="1" parent="97" source="23" target="12">
                    <mxGeometry width="160" relative="1" as="geometry">
                        <mxPoint x="1314.4342857142856" y="342" as="sourcePoint"/>
                        <mxPoint x="1314.4342857142856" y="402" as="targetPoint"/>
                    </mxGeometry>
                </mxCell>
                <mxCell id="92" value="Read Variables&lt;br&gt;and Secrets" style="endArrow=open;endSize=12;dashed=1;html=1;exitX=0;exitY=0.5;exitDx=0;exitDy=0;entryX=0;entryY=0.5;entryDx=0;entryDy=0;" edge="1" parent="97" source="14" target="23">
                    <mxGeometry width="160" relative="1" as="geometry">
                        <mxPoint x="1324.4342857142856" y="352" as="sourcePoint"/>
                        <mxPoint x="1324.5742857142855" y="410" as="targetPoint"/>
                        <Array as="points">
                            <mxPoint x="10.849999999999909" y="330"/>
                            <mxPoint x="10.849999999999909" y="240"/>
                            <mxPoint x="10.849999999999909" y="84"/>
                        </Array>
                    </mxGeometry>
                </mxCell>
                <mxCell id="91" value="Run Flow" style="endArrow=open;endSize=12;dashed=1;html=1;exitX=0.5;exitY=1;exitDx=0;exitDy=0;entryX=0.5;entryY=0;entryDx=0;entryDy=0;" edge="1" parent="97" source="12" target="14">
                    <mxGeometry width="160" relative="1" as="geometry">
                        <mxPoint x="1314.4342857142856" y="492" as="sourcePoint"/>
                        <mxPoint x="1314.5742857142857" y="550" as="targetPoint"/>
                    </mxGeometry>
                </mxCell>
                <mxCell id="88" value="Schedule Flow" style="endArrow=open;endSize=12;dashed=1;html=1;exitX=0.5;exitY=1;exitDx=0;exitDy=0;" edge="1" parent="69" source="27" target="23">
                    <mxGeometry width="160" relative="1" as="geometry">
                        <mxPoint x="570" y="170" as="sourcePoint"/>
                        <mxPoint x="730" y="170" as="targetPoint"/>
                    </mxGeometry>
                </mxCell>
                <mxCell id="32" value="" style="group" parent="1" vertex="1" connectable="0">
                    <mxGeometry x="319" y="470" width="250" height="160" as="geometry"/>
                </mxCell>
                <mxCell id="40" value="" style="group" parent="32" vertex="1" connectable="0">
                    <mxGeometry width="250" height="160" as="geometry"/>
                </mxCell>
                <mxCell id="34" value="«Component»&lt;br&gt;&lt;b&gt;Scicat Backend&lt;/b&gt;" style="html=1;dropTarget=0;" parent="40" vertex="1">
                    <mxGeometry x="35" y="50" width="180" height="90" as="geometry"/>
                </mxCell>
                <mxCell id="35" value="" style="shape=module;jettyWidth=8;jettyHeight=4;" parent="34" vertex="1">
                    <mxGeometry x="1" width="20" height="20" relative="1" as="geometry">
                        <mxPoint x="-27" y="7" as="offset"/>
                    </mxGeometry>
                </mxCell>
                <mxCell id="36" value="" style="group" parent="1" vertex="1" connectable="0">
                    <mxGeometry x="1190" y="740" width="250" height="160" as="geometry"/>
                </mxCell>
                <mxCell id="38" value="«Component»&lt;br&gt;&lt;b&gt;Storage Server&lt;/b&gt;" style="html=1;dropTarget=0;" parent="36" vertex="1">
                    <mxGeometry x="35" y="50" width="180" height="90" as="geometry"/>
                </mxCell>
                <mxCell id="39" value="" style="shape=module;jettyWidth=8;jettyHeight=4;" parent="38" vertex="1">
                    <mxGeometry x="1" width="20" height="20" relative="1" as="geometry">
                        <mxPoint x="-27" y="7" as="offset"/>
                    </mxGeometry>
                </mxCell>
                <mxCell id="44" value="" style="group" parent="1" vertex="1" connectable="0">
                    <mxGeometry x="450" y="741" width="250" height="160" as="geometry"/>
                </mxCell>
                <mxCell id="46" value="«Component»&lt;br&gt;&lt;b&gt;Ingestor&lt;/b&gt;" style="html=1;dropTarget=0;" parent="44" vertex="1">
                    <mxGeometry x="35" y="50" width="180" height="90" as="geometry"/>
                </mxCell>
                <mxCell id="47" value="" style="shape=module;jettyWidth=8;jettyHeight=4;" parent="46" vertex="1">
                    <mxGeometry x="1" width="20" height="20" relative="1" as="geometry">
                        <mxPoint x="-27" y="7" as="offset"/>
                    </mxGeometry>
                </mxCell>
                <mxCell id="48" value="" style="edgeStyle=elbowEdgeStyle;elbow=horizontal;endArrow=open;html=1;curved=0;rounded=0;endSize=8;startSize=8;entryX=0.5;entryY=0;entryDx=0;entryDy=0;dashed=1;exitX=0.5;exitY=1;exitDx=0;exitDy=0;endFill=0;" parent="1" source="14" target="38" edge="1">
                    <mxGeometry width="50" height="50" relative="1" as="geometry">
                        <mxPoint x="1290" y="710" as="sourcePoint"/>
                        <mxPoint x="1320" y="640" as="targetPoint"/>
                        <Array as="points">
                            <mxPoint x="1315" y="720"/>
                            <mxPoint x="1590" y="680"/>
                        </Array>
                    </mxGeometry>
                </mxCell>
                <mxCell id="83" value="Store Datasets&lt;br&gt;using S3" style="edgeLabel;html=1;align=center;verticalAlign=middle;resizable=0;points=[];" vertex="1" connectable="0" parent="48">
                    <mxGeometry x="-0.0212" relative="1" as="geometry">
                        <mxPoint as="offset"/>
                    </mxGeometry>
                </mxCell>
                <mxCell id="50" value="" style="edgeStyle=elbowEdgeStyle;elbow=horizontal;endArrow=open;html=1;curved=0;rounded=0;endSize=8;startSize=8;entryX=0;entryY=0.5;entryDx=0;entryDy=0;dashed=1;jumpStyle=gap;startArrow=none;exitX=1;exitY=0.5;exitDx=0;exitDy=0;endFill=0;" parent="1" source="46" target="38" edge="1">
                    <mxGeometry width="50" height="50" relative="1" as="geometry">
                        <mxPoint x="1560" y="850" as="sourcePoint"/>
                        <mxPoint x="1205" y="395" as="targetPoint"/>
                        <Array as="points">
                            <mxPoint x="980" y="880"/>
                        </Array>
                    </mxGeometry>
                </mxCell>
                <mxCell id="82" value="Upload Datasets&lt;br&gt;using S3" style="edgeLabel;html=1;align=center;verticalAlign=middle;resizable=0;points=[];" vertex="1" connectable="0" parent="50">
                    <mxGeometry x="0.3281" relative="1" as="geometry">
                        <mxPoint as="offset"/>
                    </mxGeometry>
                </mxCell>
                <mxCell id="51" value="" style="edgeStyle=elbowEdgeStyle;elbow=horizontal;endArrow=open;html=1;curved=0;rounded=0;endSize=8;startSize=8;exitX=0;exitY=0.5;exitDx=0;exitDy=0;dashed=1;entryX=0.5;entryY=1;entryDx=0;entryDy=0;endFill=0;" parent="1" source="46" target="34" edge="1">
                    <mxGeometry width="50" height="50" relative="1" as="geometry">
                        <mxPoint x="1015" y="882.5" as="sourcePoint"/>
                        <mxPoint x="230" y="710" as="targetPoint"/>
                        <Array as="points">
                            <mxPoint x="444" y="730"/>
                        </Array>
                    </mxGeometry>
                </mxCell>
                <mxCell id="85" value="Ingest Datasets" style="edgeLabel;html=1;align=center;verticalAlign=middle;resizable=0;points=[];" vertex="1" connectable="0" parent="51">
                    <mxGeometry x="0.4679" y="3" relative="1" as="geometry">
                        <mxPoint as="offset"/>
                    </mxGeometry>
                </mxCell>
                <mxCell id="54" value="" style="rounded=0;orthogonalLoop=1;jettySize=auto;html=1;endArrow=none;endFill=0;sketch=0;targetPerimeterSpacing=0;dashed=1;fontFamily=Helvetica;fontSize=11;fontColor=default;align=center;startSize=8;endSize=8;strokeColor=default;edgeStyle=elbowEdgeStyle;elbow=horizontal;startArrow=none;" parent="1" source="64" target="34" edge="1">
                    <mxGeometry width="50" height="50" relative="1" as="geometry">
                        <mxPoint x="1015" y="882.5" as="sourcePoint"/>
                        <mxPoint x="1205" y="395" as="targetPoint"/>
                        <Array as="points"/>
                    </mxGeometry>
                </mxCell>
                <mxCell id="57" value="" style="rounded=0;orthogonalLoop=1;jettySize=auto;html=1;endArrow=none;endFill=0;sketch=0;sourcePerimeterSpacing=0;targetPerimeterSpacing=0;dashed=1;jumpStyle=arc;exitX=0.5;exitY=0;exitDx=0;exitDy=0;" parent="1" source="34" target="59" edge="1">
                    <mxGeometry relative="1" as="geometry">
                        <mxPoint x="620" y="265" as="sourcePoint"/>
                    </mxGeometry>
                </mxCell>
                <mxCell id="86" value="Schedule Archival/Retrieval Job" style="edgeLabel;html=1;align=center;verticalAlign=middle;resizable=0;points=[];" vertex="1" connectable="0" parent="57">
                    <mxGeometry x="0.1981" y="2" relative="1" as="geometry">
                        <mxPoint as="offset"/>
                    </mxGeometry>
                </mxCell>
                <mxCell id="63" value="" style="rounded=0;orthogonalLoop=1;jettySize=auto;html=1;endArrow=none;endFill=0;sketch=0;sourcePerimeterSpacing=0;dashed=1;fontFamily=Helvetica;fontSize=11;fontColor=default;align=center;startSize=8;endSize=8;strokeColor=default;edgeStyle=elbowEdgeStyle;elbow=horizontal;exitX=0.25;exitY=1;exitDx=0;exitDy=0;" parent="1" source="14" target="64" edge="1">
                    <mxGeometry width="50" height="50" relative="1" as="geometry">
                        <mxPoint x="825" y="895" as="sourcePoint"/>
                        <mxPoint x="335" y="565" as="targetPoint"/>
                        <Array as="points">
                            <mxPoint x="1010" y="720"/>
                        </Array>
                    </mxGeometry>
                </mxCell>
                <mxCell id="87" value="Update Job/Dataset Status" style="edgeLabel;html=1;align=center;verticalAlign=middle;resizable=0;points=[];" vertex="1" connectable="0" parent="63">
                    <mxGeometry x="0.0271" y="1" relative="1" as="geometry">
                        <mxPoint as="offset"/>
                    </mxGeometry>
                </mxCell>
                <mxCell id="64" value="Scicat Jobs&lt;br&gt;Scicat Dataset" style="shape=providedRequiredInterface;html=1;verticalLabelPosition=bottom;sketch=0;flipV=1;flipH=1;" parent="1" vertex="1">
                    <mxGeometry x="650" y="555" width="20" height="20" as="geometry"/>
                </mxCell>
                <mxCell id="29" value="«Component»&lt;br&gt;&lt;b&gt;LTS Share&lt;/b&gt;" style="html=1;dropTarget=0;" parent="1" vertex="1">
                    <mxGeometry x="1623" y="700" width="180" height="90" as="geometry"/>
                </mxCell>
                <mxCell id="30" value="" style="shape=module;jettyWidth=8;jettyHeight=4;" parent="29" vertex="1">
                    <mxGeometry x="1" width="20" height="20" relative="1" as="geometry">
                        <mxPoint x="-27" y="7" as="offset"/>
                    </mxGeometry>
                </mxCell>
                <mxCell id="49" value="" style="edgeStyle=elbowEdgeStyle;elbow=horizontal;endArrow=open;html=1;curved=0;rounded=0;endSize=8;startSize=8;entryX=0;entryY=0.5;entryDx=0;entryDy=0;exitX=0.75;exitY=1;exitDx=0;exitDy=0;dashed=1;jumpStyle=arc;startArrow=none;startFill=0;endFill=0;" parent="1" source="14" target="29" edge="1">
                    <mxGeometry width="50" height="50" relative="1" as="geometry">
                        <mxPoint x="1015" y="882.5" as="sourcePoint"/>
                        <mxPoint x="1205" y="395" as="targetPoint"/>
                        <Array as="points">
                            <mxPoint x="1398" y="680"/>
                        </Array>
                    </mxGeometry>
                </mxCell>
                <mxCell id="84" value="Archive/Retreive Datasets" style="edgeLabel;html=1;align=center;verticalAlign=middle;resizable=0;points=[];" vertex="1" connectable="0" parent="49">
                    <mxGeometry x="0.1808" y="2" relative="1" as="geometry">
                        <mxPoint as="offset"/>
                    </mxGeometry>
                </mxCell>
                <mxCell id="58" value="" style="rounded=0;orthogonalLoop=1;jettySize=auto;html=1;endArrow=none;endFill=0;sketch=0;sourcePerimeterSpacing=0;targetPerimeterSpacing=0;dashed=1;fontFamily=Helvetica;fontSize=11;fontColor=default;align=center;endSize=6;strokeColor=default;strokeWidth=1;entryX=0;entryY=0.25;entryDx=0;entryDy=0;" parent="1" source="59" target="65" edge="1">
                    <mxGeometry relative="1" as="geometry">
                        <mxPoint x="829" y="238" as="sourcePoint"/>
                        <mxPoint x="640" y="210" as="targetPoint"/>
                    </mxGeometry>
                </mxCell>
                <mxCell id="80" value="Job" style="edgeLabel;html=1;align=center;verticalAlign=middle;resizable=0;points=[];" vertex="1" connectable="0" parent="58">
                    <mxGeometry x="-0.6677" relative="1" as="geometry">
                        <mxPoint as="offset"/>
                    </mxGeometry>
                </mxCell>
                <object label="J" id="59">
                    <mxCell style="ellipse;whiteSpace=wrap;html=1;align=center;aspect=fixed;resizable=0;points=[];outlineConnect=0;sketch=0;" parent="1" vertex="1">
                        <mxGeometry x="600" y="230" width="10" height="10" as="geometry"/>
                    </mxCell>
                </object>
            </root>
        </mxGraphModel>
    </diagram>
</mxfile>